# xmcd
#
# Track frame offsets:
#	183
#	9275
#	19063
#	26980
#	37013
#	48535
#	59408
#	69015
#	79513
#	91240
#	101088
#	111123
#	124893
#	136268
#	146115
#	156215
#	166213
#	174333
#	185770
#	193473
#	204823
#	215753
#	228075
#	235978
#	247035
#	259028
#	269475
#
# Disc length: 3748 seconds
#
# Revision: 1
# Processed by: cddbd v1.5.2PL0 Copyright (c) Steve Scherf et al.
# Submitted via: audiograbber 1.83.01
#
DISCID=820ea21b
DTITLE=Various Artist - Capitol Classics - Roackabilly
DYEAR=1992
DGENRE=Country
TTITLE0=Skeets McDonald - You're There
TTITLE1=Tommy Sands - Maybelene
TTITLE2=Wanda Jackson - Rock Your Baby
TTITLE3=Merrill Moore - Barrelhouse Bessie
TTITLE4=Gene Vincent - Woman Love
TTITLE5=Jerry Reed - Mr. Whizz
TTITLE6=The Farmer Boys - Flash Crash and Thunder
TTITLE7=Merle Travis - Cincinnati Lou
TTITLE8=The Louvin Brothers - Hoping That You're Hoping
TTITLE9=Skeets McDonald - Don't Push Me Too Far
TTITLE10=Wanda Jackson - Honey Bop
TTITLE11=Tommy Sands and The Sharks - I Ain't Gettin' Rid Of You
TTITLE12=Merrill Moore - Snatchin' and Grabbin'
TTITLE13=Gene Vincent - Crazy Legs
TTITLE14=Ray Parks - You're Gonna Have To Bawl, That's All
TTITLE15=Merle Travis and Joe Maphis - Guitar Rag
TTITLE16=Johnny Rivers - If You Want It, You Got It
TTITLE17=The Louvin Brothers - Don't Laugh
TTITLE18=The Green River Boys - Kentucky Means Paradise
TTITLE19=Merle Travis - Turn My Picture Upside Down
TTITLE20=Gene Vincent - Gonny Back Up Baby
TTITLE21=Jerry Reed - I'm Stuck
TTITLE22=Tommy Sands and The Raiders - Blue Ribbon Baby
TTITLE23=Skeets McDonald - Gone and Left Me Blues
TTITLE24=Wanda Jackson - Hot Dog! That Made Him Mad
TTITLE25=Merrill Moore - Buttermilk Baby
TTITLE26=Gene Vincent - Be-Bop-A-Lula
EXTD=
EXTT0=
EXTT1=
EXTT2=
EXTT3=
EXTT4=
EXTT5=
EXTT6=
EXTT7=
EXTT8=
EXTT9=
EXTT10=
EXTT11=
EXTT12=
EXTT13=
EXTT14=
EXTT15=
EXTT16=
EXTT17=
EXTT18=
EXTT19=
EXTT20=
EXTT21=
EXTT22=
EXTT23=
EXTT24=
EXTT25=
EXTT26=
PLAYORDER=
